[img]http://img94.imageshack.us/img94/663/capem.jpg[/img]
[code]
Format                           : AVI
Format/Info                      : Audio Video Interleave
File size                        : 1.83 GiB
Duration                         : 1h 53mn
Overall bit rate                 : 2 300 Kbps
Writing application              : VirtualDubMod 1.5.10.2 (build 2540/release)
Writing library                  : VirtualDub build 32842/release

Video
ID                               : 0
Format                           : MPEG-4 Visual
Format profile                   : Advanced Simple@L5
Format settings, BVOP            : 2
Format settings, QPel            : No
Format settings, GMC             : No warppoints
Format settings, Matrix          : Default (H.263)
Muxing mode                      : Packed bitstream
Codec ID                         : XVID
Codec ID/Hint                    : XviD
Duration                         : 1h 53mn
Bit rate                         : 753 Kbps
Width                            : 720 pixels
Height                           : 336 pixels
Display aspect ratio             : 2.2:1
Frame rate                       : 29.970 fps
Color space                      : YUV
Chroma subsampling               : 4:2:0
Bit depth                        : 8 bits
Scan type                        : Progressive
Compression mode                 : Lossy
Bits/(Pixel*Frame)               : 0.104
Stream size                      : 612 MiB (33%)
Writing library                  : XviD 64

Audio
ID                               : 1
Format                           : PCM
Format settings, Endianness      : Little
Format settings, Sign            : Signed
Codec ID                         : 1
Codec ID/Hint                    : Microsoft
Duration                         : 1h 53mn
Bit rate mode                    : Constant
Bit rate                         : 1 536 Kbps
Channel(s)                       : 2 channels
Sampling rate                    : 48.0 KHz
Bit depth                        : 16 bits
Stream size                      : 1.22 GiB (67%)
Interleave, duration             : 33 ms (1.00 video frame)
Interleave, preload duration     : 500 ms

-------------------------------------------------------------------------------
                                Install Notes
-------------------------------------------------------------------------------
Ok did somw lighting of the video and ran a few other filters to clean it up a 
lil.  not a bad video source took awjile to get it right  HOPE you ENJOY it
[/code]
Screens:
[img]http://img839.imageshack.us/img839/6573/42292149.png[/img]
[img]http://img52.imageshack.us/img52/1663/97145666.png[/img]
[img]http://img135.imageshack.us/img135/3900/37183899.png[/img]